<svg width="21" height="20" viewBox="0 0 21 20" fill="none" xmlns="http://www.w3.org/2000/svg">
<path d="M17.1669 9.16567H18.8335C18.8335 4.89067 15.606 1.6665 11.3252 1.6665V3.33317C14.7102 3.33317 17.1669 5.78567 17.1669 9.16567Z" fill="white"/>
<path d="M11.3336 6.66654C13.0861 6.66654 13.8336 7.41404 13.8336 9.16654H15.5002C15.5002 6.47904 14.0211 4.99987 11.3336 4.99987V6.66654ZM14.1852 11.2024C14.0251 11.0568 13.8147 10.9792 13.5984 10.9859C13.3821 10.9926 13.1769 11.0831 13.0261 11.2382L11.0319 13.289C10.5519 13.1974 9.5869 12.8965 8.59357 11.9057C7.60024 10.9115 7.2994 9.94404 7.21024 9.46737L9.2594 7.47237C9.41475 7.32165 9.50535 7.11639 9.51204 6.90005C9.51872 6.6837 9.44097 6.47324 9.29524 6.31321L6.21607 2.92737C6.07027 2.76684 5.86763 2.66946 5.6512 2.65592C5.43476 2.64239 5.22157 2.71376 5.0569 2.85487L3.24857 4.40571C3.10449 4.5503 3.0185 4.74275 3.0069 4.94654C2.9944 5.15487 2.75607 10.0899 6.58274 13.9182C9.92107 17.2557 14.1027 17.4999 15.2544 17.4999C15.4227 17.4999 15.5261 17.4949 15.5536 17.4932C15.7573 17.4818 15.9497 17.3954 16.0936 17.2507L17.6436 15.4415C17.7848 15.277 17.8563 15.0639 17.8429 14.8474C17.8295 14.631 17.7323 14.4283 17.5719 14.2824L14.1852 11.2024Z" fill="white"/>
</svg>
