<svg width="21" height="22" viewBox="0 0 21 22" fill="none" xmlns="http://www.w3.org/2000/svg">
<path d="M15.2913 13.0833C15.083 12.9792 13.7288 12.3542 13.5205 12.25C13.3122 12.1458 13.1038 12.1458 12.8955 12.3542C12.6872 12.5625 12.2705 13.1875 12.0622 13.3958C11.958 13.6042 11.7497 13.6042 11.5413 13.5C10.8122 13.1875 10.083 12.7708 9.45801 12.25C8.93717 11.7292 8.41634 11.1042 7.99968 10.4792C7.89551 10.2708 7.99967 10.0625 8.10384 9.95834C8.20801 9.85417 8.31218 9.64584 8.52051 9.54167C8.62468 9.4375 8.72884 9.22917 8.72884 9.125C8.83301 9.02084 8.83301 8.8125 8.72884 8.70834C8.62468 8.60417 8.10384 7.35417 7.89551 6.83334C7.79134 6.10417 7.58301 6.10417 7.37467 6.10417H6.85384C6.64551 6.10417 6.33301 6.3125 6.22884 6.41667C5.60384 7.04167 5.29134 7.77084 5.29134 8.60417C5.39551 9.54167 5.70801 10.4792 6.33301 11.3125C7.47884 12.9792 8.93717 14.3333 10.708 15.1667C11.2288 15.375 11.6455 15.5833 12.1663 15.6875C12.6872 15.8958 13.208 15.8958 13.833 15.7917C14.5622 15.6875 15.1872 15.1667 15.6038 14.5417C15.8122 14.125 15.8122 13.7083 15.708 13.2917L15.2913 13.0833ZM17.8955 3.60417C13.833 -0.458328 7.27051 -0.458328 3.20801 3.60417C-0.125326 6.93751 -0.750326 12.0417 1.54134 16.1042L0.0830078 21.4167L5.60384 19.9583C7.16634 20.7917 8.83301 21.2083 10.4997 21.2083C16.2288 21.2083 20.8122 16.625 20.8122 10.8958C20.9163 8.1875 19.7705 5.58334 17.8955 3.60417ZM15.083 18.1875C13.7288 19.0208 12.1663 19.5417 10.4997 19.5417C8.93717 19.5417 7.47884 19.125 6.12468 18.3958L5.81217 18.1875L2.58301 19.0208L3.41634 15.8958L3.20801 15.5833C0.708008 11.4167 1.95801 6.20834 6.02051 3.60417C10.083 1.00001 15.2913 2.35417 17.7913 6.3125C20.2913 10.375 19.1455 15.6875 15.083 18.1875Z" fill="white"/>
</svg>
