<svg width="180" height="24" viewBox="0 0 180 24" fill="none" xmlns="http://www.w3.org/2000/svg">
<path d="M21.6422 0.5V23.5H0V0.5H21.6422ZM12.7136 2.52941H2.03805V7.79622C3.19586 8.59542 4.43325 9.27382 5.62115 10.0266C5.90939 10.2093 7.40978 11.3313 7.56603 11.223C7.76207 10.389 8.59768 9.9126 8.96841 9.18781C9.61962 7.91508 9.78557 6.58727 11.0463 5.55517L12.7136 2.52941ZM19.6041 2.52941H13.49C12.9533 3.4755 12.4748 4.51147 11.8809 5.42084C11.318 6.28189 10.5445 6.91487 10.1427 7.8455C9.93988 8.3171 9.84962 8.91046 9.62447 9.35886C9.22656 10.1503 8.29779 10.7379 8.04837 11.655L11.6421 13.9308C11.9935 13.3471 12.5874 12.8176 13.0542 12.2909C13.8481 11.395 14.5857 10.3581 15.3805 9.48546C16.7014 8.03685 18.2619 6.7216 19.6032 5.28265V2.52845L19.6041 2.52941ZM19.6041 21.5672V6.39496C18.5114 7.2792 17.4836 8.24172 16.4879 9.23517L14.6546 21.5672H19.6041ZM2.03805 21.3739L4.70402 19.8248C5.04661 18.7782 5.10581 17.6099 5.40764 16.5633C5.85892 15.0035 6.80225 13.4805 7.16425 11.8666L2.03805 8.61765V21.3739ZM14.0723 21.5672L15.5766 10.2595C14.772 11.4376 13.8161 12.5682 12.8601 13.6438C10.396 16.4193 7.92803 18.6806 4.74673 20.6405L3.10464 21.5663H14.0713L14.0723 21.5672ZM5.53283 19.2479L8.83351 16.7855L11.1598 14.3686L8.02896 12.3663L7.66891 12.2909C7.00217 14.6585 5.71917 16.7314 5.5338 19.2489L5.53283 19.2479Z" fill="white"/>
<path d="M19.6041 2.52941V5.28361C18.2619 6.72256 16.7014 8.03782 15.3815 9.48643C14.5857 10.3591 13.8481 11.395 13.0552 12.2918C12.5884 12.8185 11.9944 13.3471 11.6431 13.9318L8.04934 11.656C8.29876 10.7389 9.22753 10.1523 9.62544 9.35983C9.8506 8.91143 9.93988 8.31807 10.1437 7.84647C10.5445 6.91584 11.319 6.28286 11.8819 5.42181C12.4758 4.51244 12.9543 3.47647 13.4909 2.53038H19.6051L19.6041 2.52941Z" fill="#989794"/>
<path d="M12.7136 2.52941L11.0463 5.55517C9.78557 6.58727 9.61962 7.91508 8.96841 9.18781C8.59768 9.9126 7.76207 10.389 7.56603 11.223C7.40978 11.3313 5.90939 10.2093 5.62115 10.0266C4.43325 9.27382 3.19586 8.59542 2.03805 7.79622V2.52941H12.7136Z" fill="#989794"/>
<path d="M19.6041 21.5672H14.6546L16.4879 9.23517C17.4836 8.24172 18.5114 7.2792 19.6041 6.39496V21.5672Z" fill="#989794"/>
<path d="M14.0723 21.5672L3.10561 21.5672L4.7477 20.6414C7.92803 18.6816 10.397 16.4203 12.8611 13.6448C13.8161 12.5692 14.773 11.4376 15.5775 10.2605L14.0732 21.5682L14.0723 21.5672Z" fill="#989794"/>
<path d="M2.03805 21.3739V8.61765L7.16425 11.8666C6.80225 13.4805 5.85892 15.0035 5.40764 16.5633C5.10484 17.6089 5.04564 18.7782 4.70402 19.8248L2.03805 21.3739Z" fill="#989794"/>
<path d="M5.53283 19.2479C5.7182 16.7305 7.0012 14.6576 7.66794 12.2899L8.02799 12.3653L11.1588 14.3676L8.83254 16.7846L5.53186 19.2469L5.53283 19.2479Z" fill="#989794"/>
<path d="M178.621 5.37459C178.223 5.37459 177.886 5.23728 177.61 4.96265C177.334 4.68803 177.196 4.35238 177.196 3.95569C177.196 3.55901 177.334 3.22336 177.61 2.94874C177.886 2.67411 178.223 2.5368 178.621 2.5368C179.004 2.5368 179.326 2.67411 179.586 2.94874C179.862 3.22336 180 3.55901 180 3.95569C180 4.35238 179.862 4.68803 179.586 4.96265C179.326 5.23728 179.004 5.37459 178.621 5.37459ZM179.632 7.41139V19.9526H177.541V7.41139H179.632Z" fill="white"/>
<path d="M169.238 7.18254C170.218 7.18254 171.092 7.3885 171.858 7.80044C172.624 8.19712 173.229 8.79977 173.673 9.60839C174.118 10.417 174.34 11.4011 174.34 12.5606V19.9526H172.271V12.8581C172.271 11.607 171.957 10.6535 171.329 9.99744C170.716 9.32614 169.881 8.99048 168.824 8.99048C167.736 8.99048 166.87 9.34139 166.227 10.0432C165.583 10.7298 165.262 11.7291 165.262 13.0412V19.9526H163.193V12.8581C163.193 11.607 162.879 10.6535 162.251 9.99744C161.638 9.32614 160.803 8.99048 159.746 8.99048C158.658 8.99048 157.792 9.34139 157.149 10.0432C156.505 10.7298 156.183 11.7291 156.183 13.0412V19.9526H154.092V7.41139H156.183V9.21934C156.597 8.56329 157.149 8.05981 157.838 7.7089C158.543 7.35799 159.317 7.18254 160.16 7.18254C161.217 7.18254 162.151 7.41902 162.963 7.89198C163.775 8.36495 164.381 9.05914 164.779 9.97456C165.131 9.08965 165.714 8.40309 166.526 7.91487C167.338 7.42665 168.242 7.18254 169.238 7.18254Z" fill="white"/>
<path d="M147.84 9.44819C148.207 8.73111 148.728 8.17424 149.402 7.77756C150.092 7.38088 150.927 7.18254 151.908 7.18254V9.33376H151.356C149.012 9.33376 147.84 10.6001 147.84 13.1327V19.9526H145.748V7.41139H147.84V9.44819Z" fill="white"/>
<path d="M129.665 13.6362C129.665 12.3546 129.926 11.2333 130.447 10.2721C130.968 9.29562 131.68 8.5404 132.584 8.00641C133.503 7.47242 134.522 7.20542 135.641 7.20542C136.744 7.20542 137.702 7.4419 138.514 7.91487C139.326 8.38783 139.931 8.98285 140.329 9.69993V7.41139H142.444V19.9526H140.329V17.6183C139.916 18.3506 139.295 18.9609 138.468 19.4491C137.656 19.9221 136.706 20.1586 135.618 20.1586C134.499 20.1586 133.488 19.8839 132.584 19.3347C131.68 18.7854 130.968 18.015 130.447 17.0233C129.926 16.0316 129.665 14.9025 129.665 13.6362ZM140.329 13.6591C140.329 12.7132 140.138 11.8893 139.755 11.1875C139.372 10.4857 138.851 9.95167 138.192 9.5855C137.548 9.20408 136.836 9.01337 136.054 9.01337C135.273 9.01337 134.561 9.19645 133.917 9.56262C133.273 9.92878 132.76 10.4628 132.377 11.1646C131.994 11.8664 131.803 12.6903 131.803 13.6362C131.803 14.5974 131.994 15.4365 132.377 16.1536C132.76 16.8554 133.273 17.3971 133.917 17.7785C134.561 18.1446 135.273 18.3277 136.054 18.3277C136.836 18.3277 137.548 18.1446 138.192 17.7785C138.851 17.3971 139.372 16.8554 139.755 16.1536C140.138 15.4365 140.329 14.605 140.329 13.6591Z" fill="white"/>
<path d="M122.144 7.18254C123.124 7.18254 123.997 7.3885 124.764 7.80044C125.53 8.19712 126.135 8.79977 126.579 9.60839C127.024 10.417 127.246 11.4011 127.246 12.5606V19.9526H125.177V12.8581C125.177 11.607 124.863 10.6535 124.235 9.99744C123.622 9.32614 122.787 8.99048 121.73 8.99048C120.642 8.99048 119.776 9.34139 119.133 10.0432C118.489 10.7298 118.167 11.7291 118.167 13.0412V19.9526H116.099V12.8581C116.099 11.607 115.785 10.6535 115.157 9.99744C114.544 9.32614 113.709 8.99048 112.652 8.99048C111.564 8.99048 110.698 9.34139 110.055 10.0432C109.411 10.7298 109.089 11.7291 109.089 13.0412V19.9526H106.998V7.41139H109.089V9.21934C109.503 8.56329 110.055 8.05981 110.744 7.7089C111.449 7.35799 112.223 7.18254 113.065 7.18254C114.123 7.18254 115.057 7.41902 115.869 7.89198C116.681 8.36495 117.286 9.05914 117.685 9.97456C118.037 9.08965 118.619 8.40309 119.432 7.91487C120.244 7.42665 121.148 7.18254 122.144 7.18254Z" fill="white"/>
<path d="M97.1699 20.1757C95.8918 20.1757 94.7299 19.8865 93.6842 19.308C92.655 18.7295 91.8417 17.9113 91.2442 16.8535C90.6632 15.7792 90.3727 14.5396 90.3727 13.1346C90.3727 11.7463 90.6715 10.5232 91.2691 9.46536C91.8832 8.39101 92.7131 7.57286 93.7589 7.0109C94.8046 6.4324 95.9748 6.14316 97.2695 6.14316C98.5642 6.14316 99.7344 6.4324 100.78 7.0109C101.826 7.57286 102.647 8.38275 103.245 9.44056C103.859 10.4984 104.166 11.7297 104.166 13.1346C104.166 14.5396 103.851 15.7792 103.22 16.8535C102.606 17.9113 101.768 18.7295 100.705 19.308C99.6431 19.8865 98.4646 20.1757 97.1699 20.1757ZM97.1699 18.1923C97.9832 18.1923 98.7468 18.0022 99.4605 17.6221C100.174 17.2419 100.747 16.6717 101.178 15.9114C101.627 15.1511 101.851 14.2255 101.851 13.1346C101.851 12.0438 101.635 11.1182 101.203 10.3579C100.772 9.59758 100.207 9.03562 99.5103 8.67199C98.8132 8.29184 98.0579 8.10177 97.2446 8.10177C96.4147 8.10177 95.6511 8.29184 94.954 8.67199C94.2734 9.03562 93.7257 9.59758 93.3107 10.3579C92.8957 11.1182 92.6882 12.0438 92.6882 13.1346C92.6882 14.242 92.8874 15.1759 93.2858 15.9362C93.7008 16.6965 94.2485 17.2667 94.9291 17.6469C95.6096 18.0105 96.3566 18.1923 97.1699 18.1923Z" fill="white"/>
<path d="M86.2622 4.15976C85.8306 4.15976 85.4655 4.011 85.1667 3.71349C84.8679 3.41598 84.7185 3.05236 84.7185 2.62262C84.7185 2.19288 84.8679 1.82926 85.1667 1.53175C85.4655 1.23424 85.8306 1.08548 86.2622 1.08548C86.6772 1.08548 87.0257 1.23424 87.3079 1.53175C87.6067 1.82926 87.7561 2.19288 87.7561 2.62262C87.7561 3.05236 87.6067 3.41598 87.3079 3.71349C87.0257 4.011 86.6772 4.15976 86.2622 4.15976ZM87.3577 6.36629V19.9526H85.092V6.36629H87.3577Z" fill="white"/>
<path d="M67.4198 13.1099C67.4198 11.7215 67.702 10.5066 68.2663 9.46535C68.8307 8.40754 69.6025 7.58939 70.5818 7.0109C71.5778 6.4324 72.6899 6.14316 73.9182 6.14316C74.9805 6.14316 75.9681 6.39108 76.8811 6.88693C77.794 7.36625 78.4911 8.0026 78.9725 8.79596V1.60613H81.2631V19.9526H78.9725V17.399C78.5243 18.2088 77.8604 18.8782 76.9807 19.4072C76.1009 19.9195 75.0718 20.1757 73.8933 20.1757C72.6816 20.1757 71.5778 19.8782 70.5818 19.2832C69.6025 18.6882 68.8307 17.8535 68.2663 16.7791C67.702 15.7048 67.4198 14.4817 67.4198 13.1099ZM78.9725 13.1346C78.9725 12.1099 78.765 11.2174 78.3501 10.4571C77.9351 9.69675 77.3707 9.11826 76.657 8.72158C75.9598 8.30837 75.188 8.10177 74.3415 8.10177C73.4949 8.10177 72.7231 8.30011 72.0259 8.69679C71.3288 9.09347 70.7727 9.67196 70.3578 10.4323C69.9428 11.1926 69.7353 12.0851 69.7353 13.1099C69.7353 14.1511 69.9428 15.0602 70.3578 15.837C70.7727 16.5973 71.3288 17.1841 72.0259 17.5973C72.7231 17.994 73.4949 18.1923 74.3415 18.1923C75.188 18.1923 75.9598 17.994 76.657 17.5973C77.3707 17.1841 77.9351 16.5973 78.3501 15.837C78.765 15.0602 78.9725 14.1594 78.9725 13.1346Z" fill="white"/>
<path d="M64.4408 6.36629V19.9526H62.175V17.9444C61.7435 18.6386 61.1376 19.184 60.3575 19.5807C59.5939 19.9609 58.7474 20.1509 57.8179 20.1509C56.7556 20.1509 55.8011 19.9361 54.9546 19.5063C54.1081 19.0601 53.4358 18.3989 52.9378 17.5229C52.4565 16.6469 52.2158 15.5808 52.2158 14.3247V6.36629H54.4566V14.0272C54.4566 15.366 54.7969 16.399 55.4774 17.1262C56.158 17.837 57.0875 18.1923 58.266 18.1923C59.4777 18.1923 60.4322 17.8204 61.1293 17.0767C61.8265 16.3329 62.175 15.2503 62.175 13.8288V6.36629H64.4408Z" fill="white"/>
<path d="M46.0347 8.22573V16.2337C46.0347 16.8948 46.1757 17.3659 46.4579 17.6469C46.7401 17.9113 47.2298 18.0436 47.9269 18.0436H49.5951V19.9526H47.5534C46.2919 19.9526 45.3458 19.6633 44.7151 19.0849C44.0843 18.5064 43.7689 17.556 43.7689 16.2337V8.22573H42.0012V6.36629H43.7689V2.94492H46.0347V6.36629H49.5951V8.22573H46.0347Z" fill="white"/>
<path d="M35.0929 20.1757C34.0472 20.1757 33.1094 20.0022 32.2794 19.6551C31.4495 19.2915 30.7938 18.7956 30.3125 18.1675C29.8311 17.5229 29.5655 16.7874 29.5157 15.961H31.8562C31.9226 16.6387 32.2379 17.1924 32.8023 17.6221C33.3832 18.0518 34.1385 18.2667 35.068 18.2667C35.9312 18.2667 36.6117 18.0766 37.1097 17.6965C37.6076 17.3163 37.8566 16.837 37.8566 16.2585C37.8566 15.6635 37.591 15.2255 37.0599 14.9445C36.5287 14.647 35.7071 14.3577 34.595 14.0768C33.5824 13.8123 32.7525 13.5479 32.1051 13.2834C31.4744 13.0024 30.9266 12.5975 30.4619 12.0686C30.0137 11.5231 29.7896 10.8124 29.7896 9.93641C29.7896 9.24222 29.9971 8.60588 30.4121 8.02739C30.827 7.4489 31.4163 6.99437 32.1798 6.6638C32.9434 6.31671 33.8148 6.14316 34.7941 6.14316C36.3046 6.14316 37.5246 6.52331 38.4542 7.28361C39.3837 8.04392 39.8816 9.0852 39.948 10.4075H37.6823C37.6325 9.69675 37.342 9.12652 36.8109 8.69679C36.2963 8.26705 35.5992 8.05218 34.7194 8.05218C33.9061 8.05218 33.2588 8.22573 32.7774 8.57283C32.296 8.91992 32.0553 9.37445 32.0553 9.93641C32.0553 10.3827 32.1964 10.7546 32.4786 11.0521C32.7774 11.3331 33.1426 11.5645 33.5741 11.7463C34.0223 11.9116 34.6364 12.1016 35.4166 12.3165C36.3959 12.5809 37.1926 12.8454 37.8068 13.1099C38.421 13.3578 38.9438 13.7379 39.3754 14.2503C39.8236 14.7627 40.0559 15.4321 40.0725 16.2585C40.0725 17.0023 39.865 17.6717 39.4501 18.2667C39.0351 18.8617 38.4459 19.3328 37.6823 19.6799C36.9354 20.0104 36.0722 20.1757 35.0929 20.1757Z" fill="white"/>
</svg>
