<svg width="21" height="20" viewBox="0 0 21 20" fill="none" xmlns="http://www.w3.org/2000/svg">
<path d="M1.5 9.00018C1.5 5.22918 1.5 3.34318 2.672 2.17218C3.844 1.00118 5.729 1.00018 9.5 1.00018H11.5C15.271 1.00018 17.157 1.00018 18.328 2.17218C19.499 3.34418 19.5 5.22918 19.5 9.00018V11.0002C19.5 14.7712 19.5 16.6572 18.328 17.8282C17.156 18.9992 15.271 19.0002 11.5 19.0002H9.5C5.729 19.0002 3.843 19.0002 2.672 17.8282C1.501 16.6562 1.5 14.7712 1.5 11.0002V9.00018Z" stroke="white" stroke-width="2"/>
<path d="M15 7.00018C15.8284 7.00018 16.5 6.32861 16.5 5.50018C16.5 4.67176 15.8284 4.00018 15 4.00018C14.1716 4.00018 13.5 4.67176 13.5 5.50018C13.5 6.32861 14.1716 7.00018 15 7.00018Z" fill="white"/>
<path d="M10.5 13.0002C12.1569 13.0002 13.5 11.657 13.5 10.0002C13.5 8.34333 12.1569 7.00018 10.5 7.00018C8.84315 7.00018 7.5 8.34333 7.5 10.0002C7.5 11.657 8.84315 13.0002 10.5 13.0002Z" stroke="white" stroke-width="2"/>
</svg>
