<svg width="35" height="28" viewBox="0 0 35 28" fill="none" xmlns="http://www.w3.org/2000/svg">
<path d="M19.1159 6.486C19.1159 8.246 19.5759 9.724 20.4959 10.92C21.1479 11.744 22.0326 12.2853 23.1499 12.544C24.2499 12.8 25.2899 12.818 26.2299 12.6C26.5499 14.5 26.0299 16.512 24.7099 18.644C23.3873 20.7747 21.6819 22.3767 19.5939 23.45L22.7559 28C24.3559 27.208 25.8759 26.204 27.2759 24.99C28.6959 23.776 29.9559 22.38 31.0759 20.802C32.1959 19.224 33.0359 17.442 33.5759 15.422C34.1159 13.402 34.2659 11.342 34.0079 9.222C33.6719 6.422 32.7679 4.182 31.2959 2.522C29.8253 0.840666 27.9933 0 25.7999 0C23.8699 0 22.2679 0.58 20.9999 1.756C19.7453 2.908 19.1186 4.48667 19.1199 6.492L19.1159 6.486ZM0.867924 6.486C0.867924 8.246 1.32793 9.724 2.24792 10.92C2.90126 11.76 3.78592 12.3047 4.90192 12.554C6.02192 12.8007 7.04859 12.8153 7.98192 12.598C8.30192 14.478 7.80192 16.498 6.47792 18.638C5.15792 20.758 3.45392 22.358 1.36592 23.438L4.51992 28C6.12126 27.208 7.62792 26.2047 9.03992 24.99C10.4727 23.7579 11.7453 22.3509 12.8279 20.802C13.9399 19.222 14.7679 17.442 15.3079 15.422C15.8565 13.4036 16.0039 11.2972 15.7419 9.222C15.4099 6.422 14.5099 4.182 13.0419 2.522C11.5753 0.852667 9.74659 0.0180016 7.55592 0.0180016C5.62259 0.0153351 4.02126 0.599998 2.75192 1.772C1.49726 2.924 0.869259 4.50267 0.867924 6.508V6.486Z" fill="#895740"/>
</svg>
