<svg width="21" height="18" viewBox="0 0 21 18" fill="none" xmlns="http://www.w3.org/2000/svg">
<path d="M20.6916 2.68089C19.9281 3.01836 19.1186 3.24013 18.2896 3.33889C19.1624 2.81568 19.8155 1.99341 20.1276 1.02489C19.3076 1.51289 18.4086 1.85489 17.4726 2.03989C16.8432 1.36647 16.009 0.919853 15.0996 0.769475C14.1902 0.619096 13.2566 0.773381 12.4439 1.20834C11.6312 1.64331 10.985 2.33457 10.6058 3.17468C10.2265 4.01479 10.1354 4.95667 10.3466 5.85389C8.68353 5.77093 7.05647 5.33897 5.57121 4.58609C4.08595 3.83321 2.77571 2.77625 1.72564 1.48389C1.35402 2.12238 1.15869 2.84813 1.15964 3.58689C1.15964 5.03689 1.89864 6.31789 3.01964 7.06789C2.35583 7.04576 1.70674 6.86653 1.12564 6.54489V6.59589C1.12561 7.56176 1.45967 8.49791 2.07117 9.24556C2.68267 9.99321 3.53395 10.5063 4.48064 10.6979C3.86431 10.8653 3.21792 10.8899 2.59064 10.7699C2.85756 11.6013 3.37785 12.3284 4.07864 12.8493C4.77942 13.3702 5.6256 13.6589 6.49864 13.6749C5.63083 14.3561 4.63735 14.8596 3.57492 15.1568C2.51248 15.454 1.40192 15.5389 0.306641 15.4069C2.21834 16.6363 4.44374 17.289 6.71664 17.2869C14.4106 17.2869 18.6166 10.9139 18.6166 5.38689C18.6166 5.20622 18.6126 5.02589 18.6046 4.84589C19.423 4.2542 20.1294 3.52141 20.6906 2.68189" fill="white"/>
</svg>
