<svg width="13" height="12" viewBox="0 0 13 12" fill="none" xmlns="http://www.w3.org/2000/svg">
<path d="M1.94 2.88513C2.74 2.88513 3.38 2.23513 3.38 1.44513C3.38 0.655127 2.73 0.00512695 1.94 0.00512695C1.15 0.00512695 0.5 0.655127 0.5 1.44513C0.5 2.23513 1.15 2.88513 1.94 2.88513ZM4.75 3.97513V11.9951H7.23V8.03513C7.23 6.98513 7.43 5.97513 8.72 5.97513C10.01 5.97513 10.01 7.17513 10.01 8.09513V11.9951H12.5V7.59513C12.5 5.43513 12.04 3.77513 9.52 3.77513C8.31 3.77513 7.5 4.43513 7.17 5.06513H7.14V3.96513H4.76L4.75 3.97513ZM0.7 3.97513H3.19V11.9951H0.7V3.97513Z" fill="white"/>
</svg>
