<svg width="35" height="28" viewBox="0 0 35 28" fill="none" xmlns="http://www.w3.org/2000/svg">
<path d="M15.8841 21.514C15.8841 19.754 15.4241 18.276 14.5041 17.08C13.8521 16.256 12.9674 15.7147 11.8501 15.456C10.7501 15.2 9.71008 15.182 8.77008 15.4C8.45008 13.5 8.97008 11.488 10.2901 9.356C11.6127 7.22533 13.3181 5.62333 15.4061 4.55L12.2441 0C10.6441 0.792 9.12408 1.796 7.72408 3.01C6.30408 4.224 5.04408 5.62 3.92408 7.198C2.80408 8.776 1.96408 10.558 1.42408 12.578C0.884076 14.598 0.734076 16.658 0.992076 18.778C1.32808 21.578 2.23208 23.818 3.70408 25.478C5.17474 27.1593 7.00674 28 9.20008 28C11.1301 28 12.7321 27.42 14.0001 26.244C15.2547 25.092 15.8814 23.5133 15.8801 21.508L15.8841 21.514ZM34.1321 21.514C34.1321 19.754 33.6721 18.276 32.7521 17.08C32.0987 16.24 31.2141 15.6953 30.0981 15.446C28.9781 15.1993 27.9514 15.1847 27.0181 15.402C26.6981 13.522 27.1981 11.502 28.5221 9.362C29.8421 7.242 31.5461 5.642 33.6341 4.562L30.4801 0C28.8787 0.792 27.3721 1.79533 25.9601 3.01C24.5273 4.24214 23.2547 5.64912 22.1721 7.198C21.0601 8.778 20.2321 10.558 19.6921 12.578C19.1435 14.5964 18.9961 16.7028 19.2581 18.778C19.5901 21.578 20.4901 23.818 21.9581 25.478C23.4247 27.1473 25.2534 27.982 27.4441 27.982C29.3774 27.9847 30.9787 27.4 32.2481 26.228C33.5027 25.076 34.1307 23.4973 34.1321 21.492V21.514Z" fill="#895740"/>
</svg>
